<?xml version="1.0" standalone="no"?>
<svg xmlns="http://www.w3.org/2000/svg" xmlns:xlink="http://www.w3.org/1999/xlink" width="134pt" height="116pt" viewBox="0.00 0.00 134.00 116.00">
<g id="graph0" class="graph" transform="translate(10.548785361344951,89.92456677722755) scale(0.8221650786271957)" data-name="G">

<polygon fill="white" stroke="transparent" points="-4,4 -4,-112 130,-112 130,4 -4,4" style=""/>
<!-- A -->
<g id="node1" class="node" pointer-events="visible" data-name="A">

<ellipse fill="none" stroke="black" cx="27" cy="-90" rx="27" ry="18" style=""/>
<text text-anchor="middle" x="27" y="-85.8" font-family="Times,serif" font-size="14.00" style="">A</text>
</g>
<!-- B -->
<g id="node3" class="node" pointer-events="visible" data-name="B">

<ellipse fill="none" stroke="black" cx="27" cy="-18" rx="27" ry="18" style=""/>
<text text-anchor="middle" x="27" y="-13.8" font-family="Times,serif" font-size="14.00" style="">B</text>
</g>
<!-- A&#45;&gt;B -->
<g id="edge1" class="edge" data-name="A-&gt;B">

<path fill="none" stroke="black" d="M27,-71.7C27,-63.98 27,-54.71 27,-46.11" style=""/>
<polygon fill="black" stroke="black" points="30.5,-46.1 27,-36.1 23.5,-46.1 30.5,-46.1" style=""/>
</g>
<!-- C -->
<g id="node4" class="node" pointer-events="visible" data-name="C">

<ellipse fill="none" stroke="black" cx="99" cy="-18" rx="27" ry="18" style=""/>
<text text-anchor="middle" x="99" y="-13.8" font-family="Times,serif" font-size="14.00" style="">C</text>
</g>
<!-- A&#45;&gt;C -->
<g id="edge2" class="edge" data-name="A-&gt;C">

<path fill="none" stroke="black" d="M41.57,-74.83C51.75,-64.94 65.52,-51.55 77.03,-40.36" style=""/>
<polygon fill="black" stroke="black" points="79.47,-42.87 84.2,-33.38 74.59,-37.85 79.47,-42.87" style=""/>
</g>
<!-- D -->
<g id="node2" class="node" pointer-events="visible" data-name="D">

<ellipse fill="none" stroke="black" cx="99" cy="-90" rx="27" ry="18" style=""/>
<text text-anchor="middle" x="99" y="-85.8" font-family="Times,serif" font-size="14.00" style="">D</text>
</g>
<!-- D&#45;&gt;B -->
<g id="edge3" class="edge" data-name="D-&gt;B">

<path fill="none" stroke="black" d="M84.43,-74.83C74.25,-64.94 60.48,-51.55 48.97,-40.36" style=""/>
<polygon fill="black" stroke="black" points="51.41,-37.85 41.8,-33.38 46.53,-42.87 51.41,-37.85" style=""/>
</g>
<!-- D&#45;&gt;C -->
<g id="edge4" class="edge" data-name="D-&gt;C">

<path fill="none" stroke="black" d="M99,-71.7C99,-63.98 99,-54.71 99,-46.11" style=""/>
<polygon fill="black" stroke="black" points="102.5,-46.1 99,-36.1 95.5,-46.1 102.5,-46.1" style=""/>
</g>
</g>
</svg>