<?xml version="1.0" standalone="no"?>
<svg xmlns="http://www.w3.org/2000/svg" xmlns:xlink="http://www.w3.org/1999/xlink" width="99pt" height="317pt" viewBox="0.00 0.00 99.00 316.80">
<g id="graph0" class="graph" transform="translate(21.579035618713206,268.1790930975806) scale(0.8221650786271957)" data-name="">
<polygon fill="white" stroke="transparent" points="-4,4 -4,-312.8 95,-312.8 95,4 -4,4"/>
<g id="clust1" class="cluster" data-name="cluster_1">

<polygon fill="none" stroke="blue" points="8,-8 8,-300.8 83,-300.8 83,-8 8,-8"/>
<text text-anchor="middle" x="45.5" y="-284.2" font-family="Times,serif" font-size="14.00">process #2</text>
</g>
<!-- b0 -->
<g id="node1" class="node" pointer-events="visible" data-name="b0">

<ellipse fill="lightgrey" stroke="black" cx="45" cy="-250" rx="27" ry="18"/>
<text text-anchor="middle" x="45" y="-245.8" font-family="Times,serif" font-size="14.00">b0</text>
</g>
<!-- b1 -->
<g id="node2" class="node" pointer-events="visible" data-name="b1">

<ellipse fill="lightgrey" stroke="black" cx="45" cy="-178" rx="27" ry="18"/>
<text text-anchor="middle" x="45" y="-173.8" font-family="Times,serif" font-size="14.00">b1</text>
</g>
<!-- b0&#45;&gt;b1 -->
<g id="edge1" class="edge" data-name="b0-&gt;b1">

<path fill="none" stroke="black" d="M45,-231.7C45,-223.98 45,-214.71 45,-206.11"/>
<polygon fill="black" stroke="black" points="48.5,-206.1 45,-196.1 41.5,-206.1 48.5,-206.1"/>
</g>
<!-- b2 -->
<g id="node3" class="node" pointer-events="visible" data-name="b2">

<ellipse fill="lightgrey" stroke="black" cx="45" cy="-106" rx="27" ry="18"/>
<text text-anchor="middle" x="45" y="-101.8" font-family="Times,serif" font-size="14.00">b2</text>
</g>
<!-- b1&#45;&gt;b2 -->
<g id="edge2" class="edge" data-name="b1-&gt;b2">

<path fill="none" stroke="black" d="M45,-159.7C45,-151.98 45,-142.71 45,-134.11"/>
<polygon fill="black" stroke="black" points="48.5,-134.1 45,-124.1 41.5,-134.1 48.5,-134.1"/>
</g>
<!-- b3 -->
<g id="node4" class="node" pointer-events="visible" data-name="b3">

<ellipse fill="lightgrey" stroke="black" cx="45" cy="-34" rx="27" ry="18"/>
<text text-anchor="middle" x="45" y="-29.8" font-family="Times,serif" font-size="14.00">b3</text>
</g>
<!-- b2&#45;&gt;b3 -->
<g id="edge3" class="edge" data-name="b2-&gt;b3">

<path fill="none" stroke="black" d="M45,-87.7C45,-79.98 45,-70.71 45,-62.11"/>
<polygon fill="black" stroke="black" points="48.5,-62.1 45,-52.1 41.5,-62.1 48.5,-62.1"/>
</g>
</g>
</svg>