<?xml version="1.0" encoding="UTF-8" standalone="no"?><!DOCTYPE svg PUBLIC "-//W3C//DTD SVG 1.1//EN" "http://www.w3.org/Graphics/SVG/1.1/DTD/svg11.dtd"><!-- Generated by graphviz version 2.40.1 (20161225.0304)
 --><!-- Title: G Pages: 1 --><svg xmlns="http://www.w3.org/2000/svg" xmlns:xlink="http://www.w3.org/1999/xlink" width="206pt" height="260pt" viewBox="0.00 0.00 206.00 260.00">
<g id="graph0" class="graph" transform="scale(1 1) rotate(0) translate(4 256)">
<title>G</title>
<polygon fill="#ffffff" stroke="transparent" points="-4,4 -4,-256 202,-256 202,4 -4,4"/>
<!-- root -->
<g id="node1" class="node">
<title>root</title>
<polygon fill="#ffff00" stroke="#000000" points="131.7393,-239.5623 99,-252 66.2607,-239.5623 66.2912,-219.4377 131.7088,-219.4377 131.7393,-239.5623"/>
<text text-anchor="middle" x="99" y="-229.8" font-family="Times,serif" font-size="14.00" fill="#000000">root</text>
</g>
<!-- l -->
<g id="node4" class="node">
<title>l</title>
<text text-anchor="middle" x="99" y="-157.8" font-family="Times,serif" font-size="14.00" fill="#000000">l</text>
</g>
<!-- root&#45;&gt;l -->
<g id="edge1" class="edge">
<title>root-&gt;l</title>
<path fill="none" stroke="#000000" d="M99,-219.4297C99,-211.1011 99,-200.3665 99,-190.436"/>
<polygon fill="#000000" stroke="#000000" points="102.5001,-190.1279 99,-180.128 95.5001,-190.128 102.5001,-190.1279"/>
</g>
<!-- n -->
<g id="node5" class="node">
<title>n</title>
<text text-anchor="middle" x="27" y="-157.8" font-family="Times,serif" font-size="14.00" fill="#000000">n</text>
</g>
<!-- root&#45;&gt;n -->
<g id="edge2" class="edge">
<title>root-&gt;n</title>
<path fill="none" stroke="#000000" d="M84.4297,-219.4297C75.2151,-210.2151 63.0553,-198.0553 52.2979,-187.2979"/>
<polygon fill="#000000" stroke="#000000" points="54.6739,-184.7242 45.128,-180.128 49.7242,-189.6739 54.6739,-184.7242"/>
</g>
<!-- e -->
<g id="node6" class="node">
<title>e</title>
<text text-anchor="middle" x="171" y="-157.8" font-family="Times,serif" font-size="14.00" fill="#000000">e</text>
</g>
<!-- root&#45;&gt;e -->
<g id="edge3" class="edge">
<title>root-&gt;e</title>
<path fill="none" stroke="#000000" d="M113.5703,-219.4297C122.7849,-210.2151 134.9447,-198.0553 145.7021,-187.2979"/>
<polygon fill="#000000" stroke="#000000" points="148.2758,-189.6739 152.872,-180.128 143.3261,-184.7242 148.2758,-189.6739"/>
</g>
<!-- n1 -->
<g id="node2" class="node">
<title>n1</title>
<polygon fill="none" stroke="#000000" points="90,-36 36,-36 36,0 90,0 90,-36"/>
<text text-anchor="middle" x="63" y="-13.8" font-family="Times,serif" font-size="14.00" fill="#0000ff">李娜</text>
</g>
<!-- n2 -->
<g id="node3" class="node">
<title>n2</title>
<polygon fill="none" stroke="#000000" points="180,-36 126,-36 126,0 180,0 180,-36"/>
<text text-anchor="middle" x="153" y="-13.8" font-family="Times,serif" font-size="14.00" fill="#0000ff">李二</text>
</g>
<!-- i -->
<g id="node7" class="node">
<title>i</title>
<text text-anchor="middle" x="99" y="-85.8" font-family="Times,serif" font-size="14.00" fill="#000000">i</text>
</g>
<!-- l&#45;&gt;i -->
<g id="edge4" class="edge">
<title>l-&gt;i</title>
<path fill="none" stroke="#000000" d="M99,-143.8314C99,-136.131 99,-126.9743 99,-118.4166"/>
<polygon fill="#000000" stroke="#000000" points="102.5001,-118.4132 99,-108.4133 95.5001,-118.4133 102.5001,-118.4132"/>
</g>
<!-- a -->
<g id="node8" class="node">
<title>a</title>
<text text-anchor="middle" x="27" y="-85.8" font-family="Times,serif" font-size="14.00" fill="#000000">a</text>
</g>
<!-- n&#45;&gt;a -->
<g id="edge7" class="edge">
<title>n-&gt;a</title>
<path fill="none" stroke="#000000" d="M27,-143.8314C27,-136.131 27,-126.9743 27,-118.4166"/>
<polygon fill="#000000" stroke="#000000" points="30.5001,-118.4132 27,-108.4133 23.5001,-118.4133 30.5001,-118.4132"/>
</g>
<!-- r -->
<g id="node9" class="node">
<title>r</title>
<text text-anchor="middle" x="171" y="-85.8" font-family="Times,serif" font-size="14.00" fill="#000000">r</text>
</g>
<!-- e&#45;&gt;r -->
<g id="edge9" class="edge">
<title>e-&gt;r</title>
<path fill="none" stroke="#000000" d="M171,-143.8314C171,-136.131 171,-126.9743 171,-118.4166"/>
<polygon fill="#000000" stroke="#000000" points="174.5001,-118.4132 171,-108.4133 167.5001,-118.4133 174.5001,-118.4132"/>
</g>
<!-- i&#45;&gt;n1 -->
<g id="edge5" class="edge">
<title>i-&gt;n1</title>
<path fill="none" stroke="#000000" d="M89.9157,-71.8314C85.9385,-63.8771 81.1845,-54.369 76.7861,-45.5723"/>
<polygon fill="#000000" stroke="#000000" points="79.8093,-43.7923 72.2066,-36.4133 73.5483,-46.9228 79.8093,-43.7923"/>
</g>
<!-- i&#45;&gt;n2 -->
<g id="edge6" class="edge">
<title>i-&gt;n2</title>
<path fill="none" stroke="#000000" d="M112.6265,-71.8314C118.846,-63.5386 126.3322,-53.557 133.16,-44.4533"/>
<polygon fill="#000000" stroke="#000000" points="135.99,-46.5133 139.19,-36.4133 130.39,-42.3133 135.99,-46.5133"/>
</g>
<!-- a&#45;&gt;n1 -->
<g id="edge8" class="edge">
<title>a-&gt;n1</title>
<path fill="none" stroke="#000000" d="M36.0843,-71.8314C40.0615,-63.8771 44.8155,-54.369 49.2139,-45.5723"/>
<polygon fill="#000000" stroke="#000000" points="52.4517,-46.9228 53.7934,-36.4133 46.1907,-43.7923 52.4517,-46.9228"/>
</g>
<!-- r&#45;&gt;n2 -->
<g id="edge10" class="edge">
<title>r-&gt;n2</title>
<path fill="none" stroke="#000000" d="M166.4578,-71.8314C164.5116,-64.0463 162.1932,-54.7729 160.0337,-46.1347"/>
<polygon fill="#000000" stroke="#000000" points="163.4242,-45.2658 157.6033,-36.4133 156.6332,-46.9636 163.4242,-45.2658"/>
</g>
</g>
</svg>